<svg width="203" height="49" viewBox="0 0 203 49" fill="none" xmlns="http://www.w3.org/2000/svg">
<path d="M0.4375 48V2.5H15.0938C19.1146 2.5 22.7292 3.41667 25.9375 5.25C29.1458 7.0625 31.6458 9.63542 33.4375 12.9688C35.25 16.2812 36.1667 20 36.1875 24.125V26.2188C36.1875 30.3854 35.3021 34.125 33.5312 37.4375C31.7812 40.7292 29.3021 43.3125 26.0938 45.1875C22.9062 47.0417 19.3438 47.9792 15.4062 48H0.4375ZM11.4062 10.9688V39.5625H15.2188C18.3646 39.5625 20.7812 38.4479 22.4688 36.2188C24.1562 33.9688 25 30.6354 25 26.2188V24.25C25 19.8542 24.1562 16.5417 22.4688 14.3125C20.7812 12.0833 18.3229 10.9688 15.0938 10.9688H11.4062ZM78.625 32.5938C78.4792 35.7604 77.625 38.5625 76.0625 41C74.5 43.4167 72.3021 45.2917 69.4688 46.625C66.6562 47.9583 63.4375 48.625 59.8125 48.625C53.8333 48.625 49.125 46.6771 45.6875 42.7812C42.25 38.8854 40.5312 33.3854 40.5312 26.2812V24.0312C40.5312 19.5729 41.3021 15.6771 42.8438 12.3438C44.4062 8.98958 46.6458 6.40625 49.5625 4.59375C52.4792 2.76042 55.8542 1.84375 59.6875 1.84375C65.2083 1.84375 69.6458 3.30208 73 6.21875C76.3542 9.11458 78.2604 13.1146 78.7188 18.2188H67.7812C67.6979 15.4479 67 13.4583 65.6875 12.25C64.375 11.0417 62.375 10.4375 59.6875 10.4375C56.9583 10.4375 54.9583 11.4583 53.6875 13.5C52.4167 15.5417 51.75 18.8021 51.6875 23.2812V26.5C51.6875 31.3542 52.2917 34.8229 53.5 36.9062C54.7292 38.9896 56.8333 40.0312 59.8125 40.0312C62.3333 40.0312 64.2604 39.4375 65.5938 38.25C66.9271 37.0625 67.6354 35.1771 67.7188 32.5938H78.625ZM102.375 48C102 47.3125 101.667 46.3021 101.375 44.9688C99.4375 47.4062 96.7292 48.625 93.25 48.625C90.0625 48.625 87.3542 47.6667 85.125 45.75C82.8958 43.8125 81.7812 41.3854 81.7812 38.4688C81.7812 34.8021 83.1354 32.0312 85.8438 30.1562C88.5521 28.2812 92.4896 27.3438 97.6562 27.3438H100.906V25.5625C100.906 22.4583 99.5625 20.9062 96.875 20.9062C94.375 20.9062 93.125 22.1354 93.125 24.5938H82.5938C82.5938 21.3229 83.9792 18.6667 86.75 16.625C89.5417 14.5833 93.0938 13.5625 97.4062 13.5625C101.719 13.5625 105.125 14.6146 107.625 16.7188C110.125 18.8229 111.406 21.7083 111.469 25.375V40.3438C111.51 43.4479 111.99 45.8229 112.906 47.4688V48H102.375ZM95.7812 41.125C97.0938 41.125 98.1771 40.8438 99.0312 40.2812C99.9062 39.7188 100.531 39.0833 100.906 38.375V32.9688H97.8438C94.1771 32.9688 92.3438 34.6146 92.3438 37.9062C92.3438 38.8646 92.6667 39.6458 93.3125 40.25C93.9583 40.8333 94.7812 41.125 95.7812 41.125ZM129.594 5.78125V14.1875H135.156V21.5H129.594V36.9688C129.594 38.2396 129.823 39.125 130.281 39.625C130.74 40.125 131.646 40.375 133 40.375C134.042 40.375 134.917 40.3125 135.625 40.1875V47.7188C133.729 48.3229 131.75 48.625 129.688 48.625C126.062 48.625 123.385 47.7708 121.656 46.0625C119.927 44.3542 119.062 41.7604 119.062 38.2812V21.5H114.75V14.1875H119.062V5.78125H129.594ZM153.625 40.5C155.104 40.5 156.25 40.1042 157.062 39.3125C157.875 38.5 158.271 37.375 158.25 35.9375H168.125C168.125 39.6458 166.792 42.6875 164.125 45.0625C161.479 47.4375 158.062 48.625 153.875 48.625C148.958 48.625 145.083 47.0833 142.25 44C139.417 40.9167 138 36.6458 138 31.1875V30.75C138 27.3333 138.625 24.3229 139.875 21.7188C141.146 19.0938 142.969 17.0833 145.344 15.6875C147.719 14.2708 150.531 13.5625 153.781 13.5625C158.177 13.5625 161.667 14.7812 164.25 17.2188C166.833 19.6562 168.125 22.9583 168.125 27.125H158.25C158.25 25.375 157.823 24.0312 156.969 23.0938C156.115 22.1562 154.969 21.6875 153.531 21.6875C150.802 21.6875 149.208 23.4271 148.75 26.9062C148.604 28.0104 148.531 29.5312 148.531 31.4688C148.531 34.8646 148.938 37.2188 149.75 38.5312C150.562 39.8438 151.854 40.5 153.625 40.5ZM182.875 17.8125C185.125 14.9792 188 13.5625 191.5 13.5625C195.229 13.5625 198.042 14.6667 199.938 16.875C201.833 19.0833 202.802 22.3438 202.844 26.6562V48H192.281V26.9062C192.281 25.1146 191.917 23.8021 191.188 22.9688C190.458 22.1146 189.219 21.6875 187.469 21.6875C185.302 21.6875 183.771 22.375 182.875 23.75V48H172.344V0H182.875V17.8125Z" fill="url(#paint0_linear_1:9)"/>
<defs>
<linearGradient id="paint0_linear_1:9" x1="180.849" y1="-2.49037" x2="66.1898" y2="65.1143" gradientUnits="userSpaceOnUse">
<stop stop-color="#579EFD"/>
<stop offset="1" stop-color="#596AFF"/>
</linearGradient>
</defs>
</svg>
