<svg width="207" height="47" viewBox="0 0 207 47" fill="none" xmlns="http://www.w3.org/2000/svg">
<path d="M11.125 46H0.1875V0.5H11.125V46ZM27.9375 12.1875L28.2812 16.1562C30.6146 13.0938 33.8333 11.5625 37.9375 11.5625C41.4583 11.5625 44.0833 12.6146 45.8125 14.7188C47.5625 16.8229 48.4688 19.9896 48.5312 24.2188V46H37.9688V24.6562C37.9688 22.9479 37.625 21.6979 36.9375 20.9062C36.25 20.0938 35 19.6875 33.1875 19.6875C31.125 19.6875 29.5938 20.5 28.5938 22.125V46H18.0625V12.1875H27.9375ZM72.0938 36.5C72.0938 35.6042 71.625 34.8854 70.6875 34.3438C69.75 33.8021 67.9688 33.2396 65.3438 32.6562C62.7188 32.0729 60.5521 31.3125 58.8438 30.375C57.1354 29.4167 55.8333 28.2604 54.9375 26.9062C54.0417 25.5521 53.5938 24 53.5938 22.25C53.5938 19.1458 54.875 16.5938 57.4375 14.5938C60 12.5729 63.3542 11.5625 67.5 11.5625C71.9583 11.5625 75.5417 12.5729 78.25 14.5938C80.9583 16.6146 82.3125 19.2708 82.3125 22.5625H71.75C71.75 19.8542 70.3229 18.5 67.4688 18.5C66.3646 18.5 65.4375 18.8125 64.6875 19.4375C63.9375 20.0417 63.5625 20.8021 63.5625 21.7188C63.5625 22.6562 64.0208 23.4167 64.9375 24C65.8542 24.5833 67.3125 25.0625 69.3125 25.4375C71.3333 25.8125 73.1042 26.2604 74.625 26.7812C79.7083 28.5312 82.25 31.6667 82.25 36.1875C82.25 39.2708 80.875 41.7812 78.125 43.7188C75.3958 45.6562 71.8542 46.625 67.5 46.625C64.6042 46.625 62.0208 46.1042 59.75 45.0625C57.4792 44.0208 55.7083 42.6042 54.4375 40.8125C53.1667 39.0208 52.5312 37.1354 52.5312 35.1562H62.375C62.4167 36.7188 62.9375 37.8646 63.9375 38.5938C64.9375 39.3021 66.2188 39.6562 67.7812 39.6562C69.2188 39.6562 70.2917 39.3646 71 38.7812C71.7292 38.1979 72.0938 37.4375 72.0938 36.5ZM85.875 28.7812C85.875 25.4062 86.5312 22.4062 87.8438 19.7812C89.1562 17.1354 91.0417 15.1042 93.5 13.6875C95.9583 12.2708 98.8438 11.5625 102.156 11.5625C107.219 11.5625 111.208 13.1354 114.125 16.2812C117.042 19.4062 118.5 23.6667 118.5 29.0625V29.4375C118.5 34.7083 117.031 38.8958 114.094 42C111.177 45.0833 107.219 46.625 102.219 46.625C97.4062 46.625 93.5417 45.1875 90.625 42.3125C87.7083 39.4167 86.1354 35.5 85.9062 30.5625L85.875 28.7812ZM96.4062 29.4375C96.4062 32.5625 96.8958 34.8542 97.875 36.3125C98.8542 37.7708 100.302 38.5 102.219 38.5C105.969 38.5 107.885 35.6146 107.969 29.8438V28.7812C107.969 22.7188 106.031 19.6875 102.156 19.6875C98.6354 19.6875 96.7292 22.3021 96.4375 27.5312L96.4062 29.4375ZM133.094 12.1875L133.438 16.1562C135.833 13.0938 139.052 11.5625 143.094 11.5625C147.365 11.5625 150.25 13.2604 151.75 16.6562C154.042 13.2604 157.354 11.5625 161.688 11.5625C168.542 11.5625 172.062 15.7083 172.25 24V46H161.688V24.6562C161.688 22.9271 161.396 21.6667 160.812 20.875C160.229 20.0833 159.167 19.6875 157.625 19.6875C155.542 19.6875 153.99 20.6146 152.969 22.4688L153 22.9062V46H142.438V24.7188C142.438 22.9479 142.156 21.6667 141.594 20.875C141.031 20.0833 139.958 19.6875 138.375 19.6875C136.354 19.6875 134.812 20.6146 133.75 22.4688V46H123.219V12.1875H133.094ZM195.969 36.5C195.969 35.6042 195.5 34.8854 194.562 34.3438C193.625 33.8021 191.844 33.2396 189.219 32.6562C186.594 32.0729 184.427 31.3125 182.719 30.375C181.01 29.4167 179.708 28.2604 178.812 26.9062C177.917 25.5521 177.469 24 177.469 22.25C177.469 19.1458 178.75 16.5938 181.312 14.5938C183.875 12.5729 187.229 11.5625 191.375 11.5625C195.833 11.5625 199.417 12.5729 202.125 14.5938C204.833 16.6146 206.188 19.2708 206.188 22.5625H195.625C195.625 19.8542 194.198 18.5 191.344 18.5C190.24 18.5 189.312 18.8125 188.562 19.4375C187.812 20.0417 187.438 20.8021 187.438 21.7188C187.438 22.6562 187.896 23.4167 188.812 24C189.729 24.5833 191.188 25.0625 193.188 25.4375C195.208 25.8125 196.979 26.2604 198.5 26.7812C203.583 28.5312 206.125 31.6667 206.125 36.1875C206.125 39.2708 204.75 41.7812 202 43.7188C199.271 45.6562 195.729 46.625 191.375 46.625C188.479 46.625 185.896 46.1042 183.625 45.0625C181.354 44.0208 179.583 42.6042 178.312 40.8125C177.042 39.0208 176.406 37.1354 176.406 35.1562H186.25C186.292 36.7188 186.812 37.8646 187.812 38.5938C188.812 39.3021 190.094 39.6562 191.656 39.6562C193.094 39.6562 194.167 39.3646 194.875 38.7812C195.604 38.1979 195.969 37.4375 195.969 36.5Z" fill="#596AFF"/>
</svg>
